<svg xmlns="http://www.w3.org/2000/svg" xmlns:xlink="http://www.w3.org/1999/xlink" width="50" height="50.985" viewBox="0 0 50 50.985"><defs><clipPath id="a"><rect width="50" height="50.985" fill="rgba(0,0,0,0)"/></clipPath><linearGradient id="b" x1="0.826" y1="0.343" x2="0.135" y2="1" gradientUnits="objectBoundingBox"><stop offset="0" stop-color="#18b1c4"/><stop offset="0.239" stop-color="#0095a7"/><stop offset="1" stop-color="#004e58"/></linearGradient><linearGradient id="c" x1="1.404" x2="-0.324" y2="1.194" gradientUnits="objectBoundingBox"><stop offset="0" stop-color="#9becff"/><stop offset="0.51" stop-color="#98e7fa"/><stop offset="1" stop-color="#315d7e"/></linearGradient></defs><g clip-path="url(#a)"><path d="M50,51H18.75l-2.1-.1A18.97,18.97,0,0,1,0,31.95V.1H31.95A18.1,18.1,0,0,1,49.9,18V34.05Z" transform="translate(0 -0.05)" fill="#fff"/><path d="M49.9,49.85H20.65A18.6,18.6,0,0,1,2,31.25V2H32.65A17.25,17.25,0,0,1,49.9,19.25Z" transform="translate(-1 -1)" fill="url(#b)"/><path d="M49.9,34.75v16.3h-30l-2-.1A18.226,18.226,0,0,1,1.9,32.7V2.1h18V34.75Z" transform="translate(-0.95 -1.05)" fill="url(#c)"/><rect width="8.1" height="32.595" transform="translate(16.3 1.05)" fill="#161616"/><rect width="8.25" height="16.34" transform="translate(40.7 33.6)" fill="#161616"/></g></svg>